# xmcd
#
# Track frame offsets:
#  150
#  12093
#  28511
#  44244
#  64687
#  84885
#  106683
#  120841
#  146169
#  155759
#  169606
#  184626
#  195640
#  212626
#
# Disc length: 3089 seconds
#
# Revision: 0
# Processed by: cddbd v1.5.1PL0 Copyright (c) Steve Scherf et al.
# Submitted via: AltoMP3_Maker 3.0
#
DISCID=b20c0f0e
DTITLE=Johnny Cash - 7-5-03 One Last Time, Carter's Fold
DYEAR=1900
DGENRE=
TTITLE0=Intro
TTITLE1=Folsom Prison Blues
TTITLE2=I Walk The Line
TTITLE3=Sunday Mornin' Coming Down
TTITLE4=Ring Of Fire
TTITLE5=Angel Band
TTITLE6=Big River
TTITLE7=Understand Your Man
TTITLE8=Thank You's From June
TTITLE9=Jackson
TTITLE10=If I Were A Carpenter
TTITLE11=Far Banks Of Jordan
TTITLE12=Daddy Sang Bass
TTITLE13=Tears In The Holston River
EXTD=
EXTT0=
EXTT1=
EXTT2=
EXTT3=
EXTT4=
EXTT5=
EXTT6=
EXTT7=
EXTT8=
EXTT9=
EXTT10=
EXTT11=
EXTT12=
EXTT13=
PLAYORDER=
